REM DIRINDEX 1\2,1\3,1\4,1\5
REM DIRNAME "folder01","folder02","folder03","folder04","folder05"
TITLE ""
FILE "P1Q_t_0030-0039.mp3" MP3
  TRACK 01 AUDIO
    TITLE "2:cjc173_0997"
    INDEX 01 00:00:00
  TRACK 02 AUDIO
    TITLE "0:"
    INDEX 01 00:01:16
  TRACK 03 AUDIO
    TITLE "3:cjc173_0998"
    INDEX 01 00:01:63
  TRACK 04 AUDIO
    TITLE "0:"
    INDEX 01 00:03:20
  TRACK 05 AUDIO
    TITLE "4:cjc173_0999"
    INDEX 01 00:03:40
  TRACK 06 AUDIO
    TITLE "0:"
    INDEX 01 00:05:37
  TRACK 07 AUDIO
    TITLE "5:cjc173_1000"
    INDEX 01 00:05:57
  TRACK 08 AUDIO
    TITLE "0:"
    INDEX 01 00:10:07
  TRACK 09 AUDIO
    TITLE "3:cjc173_1001"
    INDEX 01 00:10:56
  TRACK 10 AUDIO
    TITLE "0:"
    INDEX 01 00:11:63
  TRACK 11 AUDIO
    TITLE "4:cjc173_1002"
    INDEX 01 00:12:08
  TRACK 12 AUDIO
    TITLE "0:"
    INDEX 01 00:15:22
  TRACK 13 AUDIO
    TITLE "5:cjc173_1003"
    INDEX 01 00:15:39
  TRACK 14 AUDIO
    TITLE "0:"
    INDEX 01 00:20:27
  TRACK 15 AUDIO
    TITLE "3:cjc173_1004"
    INDEX 01 00:20:74
  TRACK 16 AUDIO
    TITLE "0:"
    INDEX 01 00:22:00
  TRACK 17 AUDIO
    TITLE "4:cjc173_1005"
    INDEX 01 00:22:22
  TRACK 18 AUDIO
    TITLE "0:"
    INDEX 01 00:25:51
  TRACK 19 AUDIO
    TITLE "5:cjc173_1006"
    INDEX 01 00:25:71
  TRACK 20 AUDIO
    TITLE "0:"
    INDEX 01 00:30:02
  TRACK 21 AUDIO
    TITLE "3:cjc173_1007"
    INDEX 01 00:30:49
  TRACK 22 AUDIO
    TITLE "0:"
    INDEX 01 00:31:56
  TRACK 23 AUDIO
    TITLE "4:cjc173_1008"
    INDEX 01 00:32:02
  TRACK 24 AUDIO
    TITLE "0:"
    INDEX 01 00:35:54
  TRACK 25 AUDIO
    TITLE "5:cjc173_1009"
    INDEX 01 00:35:71
  TRACK 26 AUDIO
    TITLE "0:"
    INDEX 01 00:39:61
  TRACK 27 AUDIO
    TITLE "3:cjc173_1010"
    INDEX 01 00:40:41
  TRACK 28 AUDIO
    TITLE "0:"
    INDEX 01 00:41:62
  TRACK 29 AUDIO
    TITLE "4:cjc173_1011"
    INDEX 01 00:42:09
  TRACK 30 AUDIO
    TITLE "0:"
    INDEX 01 00:45:38
  TRACK 31 AUDIO
    TITLE "5:cjc173_1012"
    INDEX 01 00:45:58
  TRACK 32 AUDIO
    TITLE "0:"
    INDEX 01 00:50:53
  TRACK 33 AUDIO
    TITLE "3:cjc173_1013"
    INDEX 01 00:51:25
  TRACK 34 AUDIO
    TITLE "0:"
    INDEX 01 00:52:40
  TRACK 35 AUDIO
    TITLE "4:cjc173_1014"
    INDEX 01 00:52:62
  TRACK 36 AUDIO
    TITLE "0:"
    INDEX 01 00:58:08
  TRACK 37 AUDIO
    TITLE "5:cjc173_1015"
    INDEX 01 00:58:27
  TRACK 38 AUDIO
    TITLE "0:"
    INDEX 01 01:03:05
  TRACK 39 AUDIO
    TITLE "3:cjc173_1016"
    INDEX 01 01:03:50
  TRACK 40 AUDIO
    TITLE "0:"
    INDEX 01 01:04:63
  TRACK 41 AUDIO
    TITLE "4:cjc173_1017"
    INDEX 01 01:05:08
  TRACK 42 AUDIO
    TITLE "0:"
    INDEX 01 01:06:29
  TRACK 43 AUDIO
    TITLE "5:cjc173_1018"
    INDEX 01 01:06:50
  TRACK 44 AUDIO
    TITLE "0:"
    INDEX 01 01:11:32
  TRACK 45 AUDIO
    TITLE "3:cjc173_1019"
    INDEX 01 01:12:04
  TRACK 46 AUDIO
    TITLE "0:"
    INDEX 01 01:13:13
  TRACK 47 AUDIO
    TITLE "4:cjc173_1020"
    INDEX 01 01:13:35
  TRACK 48 AUDIO
    TITLE "0:"
    INDEX 01 01:16:43
  TRACK 49 AUDIO
    TITLE "5:cjc173_1021"
    INDEX 01 01:16:62
  TRACK 50 AUDIO
    TITLE "0:"
    INDEX 01 01:21:26
  TRACK 51 AUDIO
    TITLE "3:cjc173_1022"
    INDEX 01 01:21:71
  TRACK 52 AUDIO
    TITLE "0:"
    INDEX 01 01:23:04
  TRACK 53 AUDIO
    TITLE "4:cjc173_1023"
    INDEX 01 01:23:25
  TRACK 54 AUDIO
    TITLE "0:"
    INDEX 01 01:26:28
  TRACK 55 AUDIO
    TITLE "5:cjc173_1024"
    INDEX 01 01:26:47
  TRACK 56 AUDIO
    TITLE "0:"
    INDEX 01 01:32:54
  TRACK 57 AUDIO
    TITLE "3:cjc173_1025"
    INDEX 01 01:33:24
  TRACK 58 AUDIO
    TITLE "0:"
    INDEX 01 01:34:25
  TRACK 59 AUDIO
    TITLE "4:cjc173_1026"
    INDEX 01 01:34:49
  TRACK 60 AUDIO
    TITLE "0:"
    INDEX 01 01:37:23
  TRACK 61 AUDIO
    TITLE "5:cjc173_1027"
    INDEX 01 01:37:45
  TRACK 62 AUDIO
    TITLE "0:"
    INDEX 01 01:42:74
